<svg width="0" height="0" class="hidden">
  <symbol fill="none" xmlns="http://www.w3.org/2000/svg" viewBox="0 0 34 33" id="social-01">
    <path d="M17 33C26.3888 33 34 25.6127 34 16.5C34 7.3873 26.3888 0 17 0C7.61116 0 0 7.3873 0 16.5C0 25.6127 7.61116 33 17 33Z" fill="url(#paint0_linear_5862_557)"></path>
    <path d="M20.4358 8.25H13.5642C12.2216 8.25172 10.9346 8.77013 9.98523 9.69155C9.03589 10.613 8.50178 11.8622 8.5 13.1653V19.8347C8.50178 21.1378 9.03589 22.387 9.98523 23.3084C10.9346 24.2299 12.2216 24.7483 13.5642 24.75H20.4358C21.7785 24.7488 23.066 24.2306 24.0154 23.3091C24.9649 22.3875 25.4988 21.138 25.5 19.8347V13.1653C25.4982 11.8622 24.9641 10.613 24.0148 9.69155C23.0654 8.77013 21.7784 8.25172 20.4358 8.25ZM23.7911 19.8347C23.7911 20.6984 23.4376 21.5268 22.8083 22.1375C22.1791 22.7482 21.3257 23.0913 20.4358 23.0913H13.5642C12.6743 23.0913 11.8209 22.7482 11.1917 22.1375C10.5624 21.5268 10.2089 20.6984 10.2089 19.8347V13.1653C10.2089 12.3016 10.5624 11.4732 11.1917 10.8625C11.8209 10.2518 12.6743 9.90868 13.5642 9.90868H20.4358C21.3257 9.90868 22.1791 10.2518 22.8083 10.8625C23.4376 11.4732 23.7911 12.3016 23.7911 13.1653V19.8347Z" fill="white"></path>
    <path d="M17.0014 12.2334C16.1315 12.233 15.2809 12.483 14.5574 12.9518C13.8339 13.4207 13.2699 14.0873 12.9367 14.8673C12.6036 15.6473 12.5163 16.5057 12.686 17.3339C12.8556 18.162 13.2744 18.9228 13.8896 19.5198C14.5048 20.1169 15.2885 20.5235 16.1418 20.6881C16.9951 20.8527 17.8795 20.768 18.6831 20.4447C19.4868 20.1213 20.1736 19.5739 20.6566 18.8717C21.1397 18.1694 21.3973 17.3439 21.3968 16.4995C21.3956 15.3684 20.9322 14.284 20.1081 13.4842C19.2841 12.6844 18.1668 12.2345 17.0014 12.2334ZM17.0014 19.1048C16.4705 19.1048 15.9516 18.952 15.5102 18.6657C15.0687 18.3795 14.7247 17.9726 14.5215 17.4965C14.3184 17.0205 14.2652 16.4966 14.3688 15.9913C14.4724 15.4859 14.728 15.0217 15.1034 14.6573C15.4788 14.293 15.9571 14.0448 16.4778 13.9443C16.9985 13.8438 17.5382 13.8954 18.0286 14.0926C18.5191 14.2898 18.9383 14.6237 19.2333 15.0521C19.5282 15.4805 19.6856 15.9842 19.6856 16.4995C19.6856 17.1905 19.4028 17.8531 18.8995 18.3417C18.3961 18.8303 17.7133 19.1048 17.0014 19.1048Z" fill="white"></path>
    <path d="M21.423 13.289C22.0234 13.289 22.5102 12.8166 22.5102 12.2338C22.5102 11.6511 22.0234 11.1787 21.423 11.1787C20.8227 11.1787 20.3359 11.6511 20.3359 12.2338C20.3359 12.8166 20.8227 13.289 21.423 13.289Z" fill="white"></path>
    <defs>
      <linearGradient id="paint0_linear_5862_557" x1="17" y1="32.848" x2="17" y2="2.23618" gradientUnits="userSpaceOnUse">
        <stop stop-color="#E09B3D"></stop>
        <stop offset="0.24" stop-color="#C74C4D"></stop>
        <stop offset="0.65" stop-color="#C21975"></stop>
        <stop offset="1" stop-color="#7024C4"></stop>
      </linearGradient>
    </defs>
  </symbol>
  <symbol fill="none" xmlns="http://www.w3.org/2000/svg" viewBox="0 0 33 33" id="social-02">
    <path d="M16.5 33C25.6127 33 33 25.6127 33 16.5C33 7.3873 25.6127 0 16.5 0C7.3873 0 0 7.3873 0 16.5C0 25.6127 7.3873 33 16.5 33Z" fill="#4065D6"></path>
    <path d="M24.1131 21.2154C23.7267 21.2697 21.8487 21.2154 21.751 21.2154C21.2655 21.2203 20.7976 21.0339 20.4484 20.6965C20.0511 20.3144 19.6929 19.8932 19.3129 19.4959C19.1976 19.3748 19.0735 19.2623 18.9417 19.1594C18.6312 18.9228 18.3251 18.977 18.1796 19.3418C18.0657 19.7371 17.9873 20.1418 17.9452 20.551C17.9384 20.7234 17.8635 20.8861 17.7369 21.0033C17.6103 21.1206 17.4424 21.1828 17.27 21.1763C17.0138 21.1893 16.7576 21.1958 16.5036 21.1893C15.5796 21.1845 14.6698 20.9614 13.8484 20.538C12.9617 20.0425 12.1888 19.3665 11.5796 18.5537C10.605 17.2667 9.76274 15.8847 9.06557 14.4287C9.02866 14.3549 8.29702 12.7982 8.27965 12.7266C8.23429 12.6246 8.22996 12.509 8.26756 12.4039C8.30515 12.2988 8.38179 12.2122 8.48156 12.1621C8.61182 12.1122 11.0239 12.1621 11.0629 12.1621C11.2425 12.1604 11.418 12.2161 11.5637 12.3212C11.7094 12.4263 11.8177 12.5751 11.8727 12.7461C12.3188 13.8834 12.928 14.9497 13.6812 15.9115C13.7863 16.0411 13.9099 16.1545 14.0481 16.248C14.0838 16.2824 14.1279 16.3067 14.176 16.3182C14.2242 16.3298 14.2745 16.3284 14.3219 16.314C14.3693 16.2996 14.4119 16.2728 14.4455 16.2364C14.479 16.2 14.5023 16.1553 14.5127 16.1069C14.6082 15.793 14.6643 15.4685 14.6799 15.1408C14.6929 14.4895 14.6799 14.0553 14.643 13.4039C14.6561 13.182 14.5812 12.9638 14.4345 12.7968C14.2877 12.6297 14.081 12.5273 13.8593 12.5116C13.6682 12.4791 13.6421 12.3228 13.7746 12.1664C14.0286 11.843 14.3803 11.7908 14.7624 11.7713C15.3399 11.7387 15.9196 11.7713 16.4993 11.7713H16.6252C16.8797 11.7707 17.1336 11.7961 17.3829 11.8473C17.5286 11.8772 17.6609 11.9533 17.7599 12.0644C17.8588 12.1755 17.9193 12.3156 17.9321 12.4639C17.9614 12.6279 17.9745 12.7944 17.9712 12.961C17.956 13.671 17.9213 14.3809 17.9126 15.093C17.9074 15.3743 17.9329 15.6553 17.9886 15.931C18.0733 16.3088 18.3316 16.4043 18.5965 16.1286C18.9266 15.7743 19.2292 15.3955 19.5018 14.9953C19.992 14.2667 20.3957 13.4835 20.7046 12.6614C20.8718 12.2403 20.9998 12.1469 21.4536 12.1469H24.0133C24.166 12.1444 24.3182 12.1648 24.4648 12.2077C24.5166 12.2215 24.565 12.2458 24.6069 12.279C24.6489 12.3123 24.6836 12.3538 24.7088 12.4011C24.7341 12.4483 24.7493 12.5002 24.7537 12.5536C24.758 12.607 24.7513 12.6607 24.7341 12.7114C24.5844 13.256 24.3275 13.7653 23.9785 14.2094C23.4575 14.9454 22.9104 15.664 22.3763 16.3805C22.3087 16.4742 22.2471 16.5721 22.1918 16.6735C21.992 17.0339 22.0072 17.238 22.296 17.542C22.7606 18.0196 23.2577 18.469 23.705 18.9597C24.0348 19.3172 24.3327 19.7029 24.5951 20.1125C24.9251 20.6422 24.7232 21.1285 24.1131 21.2154Z" fill="white"></path>
  </symbol>
  <symbol fill="none" xmlns="http://www.w3.org/2000/svg" viewBox="0 0 34 33" id="social-03">
    <path d="M17 33C26.3888 33 34 25.6127 34 16.5C34 7.3873 26.3888 0 17 0C7.61116 0 0 7.3873 0 16.5C0 25.6127 7.61116 33 17 33Z" fill="#039BE5"></path>
    <path d="M7.78246 16.1425L24.1733 10.0087C24.9341 9.74192 25.5985 10.1888 25.352 11.3053L25.3534 11.3039L22.5626 24.0653C22.3557 24.97 21.8018 25.19 21.0269 24.7638L16.7769 21.7237L14.727 23.6404C14.5003 23.8604 14.309 24.046 13.8699 24.046L14.1716 19.8482L22.0483 12.9415C22.3911 12.6487 21.9718 12.4837 21.5199 12.7752L11.786 18.7234L7.5898 17.4529C6.67888 17.1724 6.65905 16.5688 7.78246 16.1425Z" fill="white"></path>
  </symbol>
</svg>