<svg width="0" height="0" class="hidden">
  <symbol fill="none" xmlns="http://www.w3.org/2000/svg" viewBox="0 0 50 50" id="benefits-icon-01">
    <g clip-path="url(#clip0_5856_2231)">
      <path d="M36.3267 21.6446V12.1822C36.3267 11.9114 36.2016 11.6611 36.0246 11.4632L25.4159 0.323105C25.2179 0.114822 24.9364 0 24.6552 0H7.83548C4.73032 0 2.25 2.5322 2.25 5.63774V37.4428C2.25 40.5483 4.73032 43.0389 7.83548 43.0389H21.1121C23.6234 47.2073 28.188 50 33.3878 50C41.2869 50 47.7376 43.5806 47.7376 35.6712C47.7483 28.7621 42.7876 22.9889 36.3267 21.6446ZM25.6974 3.65791L32.8149 11.1504H28.1983C26.8228 11.1504 25.6974 10.0147 25.6974 8.63915V3.65791ZM7.83548 40.9546C5.88693 40.9546 4.33435 39.3913 4.33435 37.4428V5.63774C4.33435 3.67851 5.88693 2.08435 7.83548 2.08435H23.6131V8.63915C23.6131 11.1713 25.6661 13.2347 28.1983 13.2347H34.2423V21.3734C33.9299 21.3631 33.6797 21.3318 33.4088 21.3318C29.7719 21.3318 26.4268 22.7284 23.9049 24.9168H10.6702C10.0968 24.9168 9.628 25.3857 9.628 25.9586C9.628 26.532 10.0968 27.0008 10.6702 27.0008H21.9666C21.2266 28.043 20.6117 29.0852 20.1325 30.2315H10.6702C10.0968 30.2315 9.628 30.7003 9.628 31.2737C9.628 31.8466 10.0968 32.3158 10.6702 32.3158H19.455C19.1945 33.358 19.0591 34.5146 19.0591 35.6712C19.0591 37.5469 19.4238 39.402 20.0803 40.9653H7.83548V40.9546ZM33.3985 47.9263C26.6457 47.9263 21.1537 42.4343 21.1537 35.6815C21.1537 28.9288 26.6351 23.4367 33.3985 23.4367C40.1616 23.4367 45.6429 28.9288 45.6429 35.6815C45.6429 42.4343 40.1513 47.9263 33.3985 47.9263Z" fill="white"></path>
      <path d="M10.6672 21.7802H21.2236C21.7969 21.7802 22.2658 21.3109 22.2658 20.738C22.2658 20.1646 21.7969 19.6958 21.2236 19.6958H10.6672C10.0938 19.6958 9.625 20.1646 9.625 20.738C9.625 21.3109 10.0938 21.7802 10.6672 21.7802Z" fill="white"></path>
      <path d="M39.0638 30.9919L31.1853 38.2032L27.3298 34.0139C26.9441 33.5867 26.2769 33.5661 25.8604 33.9514C25.4331 34.337 25.4121 35.0042 25.7978 35.4208L30.3621 40.3707C30.5704 40.5897 30.8519 40.7045 31.1334 40.7045C31.3833 40.7045 31.6335 40.6107 31.8418 40.4333L40.481 32.5136C40.9082 32.1279 40.9395 31.4607 40.5435 31.0442C40.1476 30.6272 39.4911 30.596 39.0638 30.9919Z" fill="white"></path>
    </g>
    <defs>
      <clipPath id="clip0_5856_2231">
        <rect width="50" height="50" fill="white"></rect>
      </clipPath>
    </defs>
  </symbol>
  <symbol fill="none" xmlns="http://www.w3.org/2000/svg" viewBox="0 0 50 50" id="benefits-icon-02">
    <g clip-path="url(#clip0_5856_2092)">
      <path d="M13.7993 38.2541L24.5287 45.5696C24.8227 45.7689 25.2084 45.7689 25.502 45.5696L36.2348 38.2545C39.2484 36.1995 41.7068 31.5632 41.7068 27.9187V12.569C41.7043 12.2397 41.515 11.9402 41.2189 11.7959L25.3994 4.02746C25.1596 3.91012 24.8791 3.91012 24.6394 4.02746L8.81812 11.7724C8.52076 11.9162 8.33107 12.2157 8.32812 12.5458V27.9187C8.32812 31.5632 10.7861 36.1995 13.7993 38.2541ZM10.0509 13.083L25.0158 5.76033L39.9841 13.1057V27.9187C39.9841 30.9546 37.7755 35.119 35.2645 36.8308L25.0208 43.8153L14.7717 36.8308C12.2611 35.119 10.0509 30.9546 10.0509 27.9187V13.083Z" fill="white"></path>
      <path d="M11.797 41.1759L24.5235 49.8503C24.8183 50.0501 25.2049 50.0501 25.4997 49.8503L38.2337 41.1763C42.1642 38.4967 45.2586 32.673 45.2586 27.9186V10.3658C45.2527 10.0347 45.0605 9.7357 44.7623 9.59228L25.4038 0.0880103C25.1632 -0.0293368 24.8818 -0.0293368 24.6413 0.0880103L5.27269 9.5662C4.97322 9.70878 4.78017 10.0083 4.77344 10.3397V27.9186C4.77344 32.673 7.86694 38.4967 11.797 41.1759ZM6.49621 10.8768L25.0164 1.82088L43.5362 10.902V27.9186C43.5362 32.1624 40.7733 37.3606 37.2643 39.753L25.0232 48.096L12.7715 39.7526C9.26333 37.361 6.49621 32.1624 6.49621 27.9186V10.8768Z" fill="white"></path>
      <path d="M21.9843 32.9352C22.1463 33.0963 22.3663 33.1854 22.5946 33.1829H22.5967C22.8239 33.1858 23.0434 33.0975 23.2058 32.9385L35.4443 20.7033C35.6063 20.5422 35.6971 20.3235 35.6971 20.0951C35.6971 19.8667 35.6063 19.648 35.4443 19.4869L33.0082 17.0517C32.6718 16.7152 32.1262 16.7152 31.7898 17.0517L22.6115 26.2304L18.2658 21.8419C17.931 21.5037 17.3855 21.5012 17.0474 21.836L14.5991 24.2603C14.4367 24.4214 14.345 24.6401 14.3438 24.8685C14.3429 25.0956 14.4325 25.3139 14.5932 25.475L21.9843 32.9352ZM17.6476 23.6669L21.9965 28.0701C22.1564 28.2362 22.3759 28.3326 22.6064 28.3372H22.6085C22.8386 28.333 23.0573 28.2379 23.2175 28.073L32.3992 18.8859L33.6173 20.101L22.5997 31.1173L16.4236 24.8803L17.6476 23.6669Z" fill="white"></path>
    </g>
    <defs>
      <clipPath id="clip0_5856_2092">
        <rect width="50" height="50" fill="white"></rect>
      </clipPath>
    </defs>
  </symbol>
  <symbol fill="none" xmlns="http://www.w3.org/2000/svg" viewBox="0 0 55 55" id="benefits-icon-03">
    <path d="M31.3237 15.0169C29.9072 13.6006 27.6146 13.6004 26.198 15.0169L20.2943 20.9207L18.8201 19.4467C17.4093 18.036 15.1222 18.0312 13.7059 19.4474C12.296 20.8575 12.296 23.1527 13.7059 24.5628L19.612 30.471C20.0429 30.9019 20.7189 30.8887 21.1361 30.466L31.3401 20.1261C32.7352 18.7132 32.7278 16.4212 31.3237 15.0169ZM29.8112 18.617L20.3668 28.1835L15.225 23.0418C14.6527 22.4694 14.6527 21.5381 15.225 20.9657C15.7985 20.3923 16.7272 20.3919 17.301 20.9657L19.5346 23.1995C19.9539 23.6187 20.6343 23.619 21.0537 23.1995L27.717 16.5361C28.2937 15.9592 29.2277 15.9591 29.8044 16.5361C30.3764 17.108 30.3794 18.0415 29.8112 18.617Z" fill="white"></path>
    <path d="M48.4555 40.2266L37.9337 31.2052C41.9089 24.2687 40.7647 15.49 35.0818 9.80689C28.1388 2.86421 16.9012 2.86346 9.95741 9.80699C3.01473 16.7498 3.01366 27.9882 9.95741 34.9319C15.772 40.747 24.5218 41.6474 31.2532 37.841L39.9179 48.5315C42.1467 51.2812 46.2738 51.5123 48.7916 48.9945C51.252 46.534 51.097 42.4912 48.4555 40.2266ZM11.4766 33.4119C5.3735 27.3089 5.37243 17.43 11.4766 11.3258C17.5795 5.22287 27.4586 5.2219 33.5625 11.3258C40.5163 18.2797 39.4164 30.1015 30.9221 35.5358C30.9219 35.5359 30.9216 35.5362 30.9214 35.5363C24.9552 39.3516 16.8262 38.7619 11.4766 33.4119ZM47.2723 47.4751C45.666 49.0816 43.0203 48.9469 41.5868 47.1785L33.0667 36.6664C34.4861 35.615 35.7375 34.3612 36.7436 33.0147L47.0572 41.8576C48.743 43.3031 48.8611 45.8866 47.2723 47.4751Z" fill="white"></path>
  </symbol>
  <symbol fill="none" xmlns="http://www.w3.org/2000/svg" viewBox="0 0 63 63" id="benefits-icon-04">
    <g clip-path="url(#clip0_5856_2339)">
      <path d="M54.0884 48.9405C53.0208 48.9413 51.977 48.6254 51.089 48.0329C50.2009 47.4403 49.5085 46.5977 49.0995 45.6116C48.6904 44.6255 48.5829 43.5402 48.7907 42.493C48.9985 41.4458 49.5122 40.4838 50.2669 39.7286C51.0215 38.9734 51.9831 38.459 53.0302 38.2505C54.0772 38.0419 55.1625 38.1486 56.1489 38.5569C57.1353 38.9653 57.9785 39.657 58.5717 40.5447C59.1649 41.4323 59.4815 42.4759 59.4815 43.5435C59.4808 44.974 58.9125 46.3457 57.9014 47.3576C56.8902 48.3695 55.5189 48.9388 54.0884 48.9405ZM54.0884 40.1152C53.4102 40.1145 52.747 40.3149 52.1827 40.6911C51.6184 41.0673 51.1784 41.6025 50.9183 42.2288C50.6583 42.8552 50.5898 43.5446 50.7216 44.2099C50.8535 44.8752 51.1797 45.4864 51.659 45.9662C52.1383 46.4461 52.7491 46.773 53.4142 46.9056C54.0794 47.0382 54.7689 46.9705 55.3955 46.7112C56.0222 46.4518 56.5578 46.0124 56.9347 45.4485C57.3116 44.8847 57.5127 44.2217 57.5127 43.5435C57.5124 42.635 57.1516 41.7639 56.5096 41.1211C55.8677 40.4784 54.9969 40.1166 54.0884 40.1152Z" fill="white"></path>
      <path d="M25.6522 48.9405C24.5846 48.9415 23.5406 48.6259 22.6524 48.0335C21.7642 47.4411 21.0716 46.5985 20.6623 45.6125C20.253 44.6264 20.1454 43.5411 20.3531 42.4938C20.5607 41.4465 21.0743 40.4844 21.8289 39.7291C22.5835 38.9738 23.5451 38.4592 24.5922 38.2506C25.6392 38.0419 26.7246 38.1485 27.7111 38.5568C28.6976 38.9651 29.5408 39.6569 30.1341 40.5445C30.7273 41.4322 31.044 42.4758 31.044 43.5435C31.043 44.9736 30.4747 46.345 29.464 47.3567C28.4532 48.3685 27.0824 48.938 25.6522 48.9405ZM25.6522 40.1152C24.974 40.1142 24.3106 40.3144 23.7462 40.6904C23.1817 41.0665 22.7415 41.6016 22.4812 42.2279C22.2209 42.8542 22.1523 43.5437 22.284 44.2091C22.4157 44.8744 22.7418 45.4858 23.221 45.9658C23.7002 46.4457 24.3111 46.7728 24.9762 46.9055C25.6414 47.0382 26.331 46.9706 26.9577 46.7113C27.5845 46.452 28.1202 46.0125 28.4971 45.4487C28.874 44.8848 29.0752 44.2217 29.0752 43.5435C29.0746 42.6354 28.7139 41.7646 28.0722 41.122C27.4306 40.4793 26.5604 40.1173 25.6522 40.1152Z" fill="white"></path>
      <path d="M61.1881 44.5278H58.4961C58.2351 44.5278 57.9847 44.4241 57.8001 44.2395C57.6155 44.0549 57.5118 43.8045 57.5118 43.5434C57.5118 43.2823 57.6155 43.032 57.8001 42.8473C57.9847 42.6627 58.2351 42.559 58.4961 42.559H60.9098V37.3392C60.9092 36.6335 60.7285 35.9396 60.3848 35.3232L55.0561 25.7695C55.0105 25.688 54.9441 25.6201 54.8636 25.5728C54.7831 25.5255 54.6914 25.5005 54.598 25.5005H47.3359V42.563H49.6801C49.9411 42.563 50.1915 42.6667 50.3761 42.8513C50.5607 43.0359 50.6644 43.2863 50.6644 43.5473C50.6644 43.8084 50.5607 44.0588 50.3761 44.2434C50.1915 44.428 49.9411 44.5317 49.6801 44.5317H46.3516C46.0905 44.5317 45.8401 44.428 45.6555 44.2434C45.4709 44.0588 45.3672 43.8084 45.3672 43.5473V24.5161C45.3672 24.255 45.4709 24.0047 45.6555 23.8201C45.8401 23.6354 46.0905 23.5317 46.3516 23.5317H54.598C55.0421 23.5315 55.4782 23.6499 55.8612 23.8746C56.2443 24.0994 56.5603 24.4223 56.7768 24.8101L62.1042 34.3651C62.6107 35.2746 62.8768 36.2982 62.8773 37.3392V42.8386C62.8766 43.2864 62.6984 43.7156 62.3817 44.0323C62.0651 44.3489 61.6359 44.5271 61.1881 44.5278Z" fill="white"></path>
      <path d="M21.2429 44.528H11.8047C11.5436 44.528 11.2932 44.4243 11.1086 44.2397C10.924 44.0551 10.8203 43.8047 10.8203 43.5437V35.9731C10.8203 35.7121 10.924 35.4617 11.1086 35.2771C11.2932 35.0925 11.5436 34.9888 11.8047 34.9888C12.0658 34.9888 12.3161 35.0925 12.5007 35.2771C12.6854 35.4617 12.7891 35.7121 12.7891 35.9731V42.5593H21.2429C21.5039 42.5593 21.7543 42.663 21.9389 42.8476C22.1235 43.0322 22.2273 43.2826 22.2273 43.5437C22.2273 43.8047 22.1235 44.0551 21.9389 44.2397C21.7543 44.4243 21.5039 44.528 21.2429 44.528Z" fill="white"></path>
      <path d="M11.8047 32.4803C11.5436 32.4803 11.2932 32.3766 11.1086 32.192C10.924 32.0074 10.8203 31.757 10.8203 31.496V24.8862C10.8203 24.6252 10.924 24.3748 11.1086 24.1902C11.2932 24.0056 11.5436 23.9019 11.8047 23.9019C12.0658 23.9019 12.3161 24.0056 12.5007 24.1902C12.6854 24.3748 12.7891 24.6252 12.7891 24.8862V31.4999C12.788 31.7603 12.6839 32.0097 12.4994 32.1934C12.3149 32.3772 12.0651 32.4803 11.8047 32.4803Z" fill="white"></path>
      <path d="M46.3563 44.5279H30.0589C29.7979 44.5279 29.5475 44.4242 29.3629 44.2396C29.1783 44.055 29.0746 43.8046 29.0746 43.5436C29.0746 43.2825 29.1783 43.0321 29.3629 42.8475C29.5475 42.6629 29.7979 42.5592 30.0589 42.5592H45.3719V16.8066H12.7891V20.861C12.7891 21.122 12.6854 21.3724 12.5007 21.557C12.3161 21.7416 12.0658 21.8453 11.8047 21.8453C11.5436 21.8453 11.2932 21.7416 11.1086 21.557C10.924 21.3724 10.8203 21.122 10.8203 20.861V16.6255C10.821 16.1514 11.0098 15.6969 11.3451 15.3618C11.6805 15.0266 12.1351 14.8382 12.6093 14.8379H45.553C46.0269 14.8386 46.4812 15.0271 46.8163 15.3622C47.1514 15.6973 47.34 16.1516 47.3406 16.6255V43.5436C47.3406 43.8046 47.2369 44.055 47.0523 44.2396C46.8677 44.4242 46.6173 44.5279 46.3563 44.5279Z" fill="white"></path>
      <path d="M15.6968 36.9575H3.20313C2.94205 36.9575 2.69167 36.8538 2.50707 36.6692C2.32246 36.4846 2.21875 36.2342 2.21875 35.9731C2.21875 35.7121 2.32246 35.4617 2.50707 35.2771C2.69167 35.0925 2.94205 34.9888 3.20313 34.9888H15.6968C15.9579 34.9888 16.2083 35.0925 16.3929 35.2771C16.5775 35.4617 16.6812 35.7121 16.6812 35.9731C16.6812 36.2342 16.5775 36.4846 16.3929 36.6692C16.2083 36.8538 15.9579 36.9575 15.6968 36.9575Z" fill="white"></path>
      <path d="M25.6527 32.4805H8.21875C7.95768 32.4805 7.7073 32.3767 7.52269 32.1921C7.33809 32.0075 7.23438 31.7572 7.23438 31.4961C7.23438 31.235 7.33809 30.9846 7.52269 30.8C7.7073 30.6154 7.95768 30.5117 8.21875 30.5117H25.6527C25.9138 30.5117 26.1641 30.6154 26.3487 30.8C26.5333 30.9846 26.6371 31.235 26.6371 31.4961C26.6371 31.7572 26.5333 32.0075 26.3487 32.1921C26.1641 32.3767 25.9138 32.4805 25.6527 32.4805Z" fill="white"></path>
      <path d="M7.67512 27.2827H0.867187C0.606115 27.2827 0.355735 27.179 0.171129 26.9944C-0.0134769 26.8098 -0.117187 26.5594 -0.117188 26.2983C-0.117188 26.0373 -0.0134769 25.7869 0.171129 25.6023C0.355735 25.4177 0.606115 25.314 0.867187 25.314H7.67512C7.9362 25.314 8.18657 25.4177 8.37118 25.6023C8.55579 25.7869 8.6595 26.0373 8.6595 26.2983C8.6595 26.5594 8.55579 26.8098 8.37118 26.9944C8.18657 27.179 7.9362 27.2827 7.67512 27.2827Z" fill="white"></path>
      <path d="M18.5876 21.8452H6.57031C6.30924 21.8452 6.05886 21.7415 5.87425 21.5569C5.68965 21.3723 5.58594 21.1219 5.58594 20.8608C5.58594 20.5998 5.68965 20.3494 5.87425 20.1648C6.05886 19.9802 6.30924 19.8765 6.57031 19.8765H18.5876C18.8486 19.8765 19.099 19.9802 19.2836 20.1648C19.4682 20.3494 19.5719 20.5998 19.5719 20.8608C19.5719 21.1219 19.4682 21.3723 19.2836 21.5569C19.099 21.7415 18.8486 21.8452 18.5876 21.8452Z" fill="white"></path>
    </g>
    <defs>
      <clipPath id="clip0_5856_2339">
        <rect width="63" height="63" fill="white"></rect>
      </clipPath>
    </defs>
  </symbol>
  <symbol fill="none" xmlns="http://www.w3.org/2000/svg" viewBox="0 0 50 50" id="benefits-icon-05">
    <path d="M25 12.3047C24.461 12.3047 24.0234 12.7422 24.0234 13.2812C24.0234 13.8203 24.461 14.2578 25 14.2578C25.539 14.2578 25.9766 13.8203 25.9766 13.2812C25.9766 12.7422 25.539 12.3047 25 12.3047Z" fill="white"></path>
    <path d="M8.78906 29.8828C9.32808 29.8828 9.76562 29.4453 9.76562 28.9062C9.76562 28.3672 9.32808 27.9297 8.78906 27.9297C8.25005 27.9297 7.8125 28.3672 7.8125 28.9062C7.8125 29.4453 8.25005 29.8828 8.78906 29.8828Z" fill="white"></path>
    <path d="M32.8125 2.53906C24.0208 2.53906 16.8049 8.60062 16.2468 16.2357C7.87392 16.6557 0 22.6933 0 30.8594C0 34.272 1.3504 37.5786 3.80859 40.1985C4.29497 42.2035 3.70445 44.3287 2.23923 45.7939C1.95999 46.0732 1.87645 46.4931 2.02751 46.8582C2.17857 47.2229 2.53448 47.4609 2.92969 47.4609C5.7148 47.4609 8.39882 46.3688 10.3931 44.4443C12.336 45.1065 14.8708 45.5078 17.1875 45.5078C25.9781 45.5078 33.1932 39.4478 33.7528 31.8142C35.7975 31.7234 37.9242 31.3457 39.6069 30.7724C41.6012 32.6969 44.2852 33.7891 47.0703 33.7891C47.4655 33.7891 47.8214 33.551 47.9725 33.1863C48.1236 32.8213 48.04 32.4013 47.7608 32.122C46.2955 30.6568 45.705 28.5316 46.1914 26.5266C48.6496 23.9067 50 20.6001 50 17.1875C50 8.70247 41.5195 2.53906 32.8125 2.53906ZM17.1875 43.5547C14.8827 43.5547 12.2562 43.1023 10.4969 42.4023C10.12 42.252 9.68933 42.3508 9.41505 42.6502C8.23593 43.9392 6.7028 44.838 5.03235 45.2511C5.95284 43.4875 6.18782 41.4085 5.62782 39.4386C5.58357 39.2834 5.50156 39.1415 5.38902 39.0259C3.17345 36.7439 1.95312 33.8436 1.95312 30.8594C1.95312 23.9777 8.92944 18.1641 17.1875 18.1641C24.9855 18.1641 31.8359 23.5867 31.8359 30.8594C31.8359 37.8597 25.2647 43.5547 17.1875 43.5547ZM44.611 25.354C44.4984 25.47 44.4164 25.6119 44.3722 25.7668C43.8122 27.7367 44.0472 29.8157 44.9677 31.5792C43.2972 31.1665 41.7641 30.2673 40.5849 28.9783C40.3107 28.6793 39.88 28.5801 39.5031 28.7304C37.9784 29.3369 35.8032 29.7569 33.7498 29.8584C33.4644 26.1654 31.6223 22.6944 28.4729 20.1172H41.2109C41.7503 20.1172 42.1875 19.68 42.1875 19.1406C42.1875 18.6012 41.7503 18.1641 41.2109 18.1641H25.4726C23.2559 17.0357 20.7668 16.3776 18.2049 16.2395C18.766 9.68056 25.1034 4.49219 32.8125 4.49219C41.0706 4.49219 48.0469 10.3058 48.0469 17.1875C48.0469 20.1717 46.8266 23.0721 44.611 25.354Z" fill="white"></path>
    <path d="M25 27.9297H12.6953C12.1559 27.9297 11.7188 28.3669 11.7188 28.9062C11.7188 29.4456 12.1559 29.8828 12.6953 29.8828H25C25.5394 29.8828 25.9766 29.4456 25.9766 28.9062C25.9766 28.3669 25.5394 27.9297 25 27.9297Z" fill="white"></path>
    <path d="M25 33.7891H8.78906C8.24966 33.7891 7.8125 34.2262 7.8125 34.7656C7.8125 35.305 8.24966 35.7422 8.78906 35.7422H25C25.5394 35.7422 25.9766 35.305 25.9766 34.7656C25.9766 34.2262 25.5394 33.7891 25 33.7891Z" fill="white"></path>
    <path d="M41.2109 12.3047H28.9062C28.3669 12.3047 27.9297 12.7419 27.9297 13.2812C27.9297 13.8206 28.3669 14.2578 28.9062 14.2578H41.2109C41.7503 14.2578 42.1875 13.8206 42.1875 13.2812C42.1875 12.7419 41.7503 12.3047 41.2109 12.3047Z" fill="white"></path>
  </symbol>
  <symbol fill="none" xmlns="http://www.w3.org/2000/svg" viewBox="0 0 47 47" id="benefits-icon-06">
    <path d="M47 27.9061C47 26.7291 46.5319 25.6324 45.7251 24.8236C46.6397 23.8229 47.1058 22.4814 46.9784 21.0852C46.7493 18.5961 44.507 16.6456 41.8711 16.6456H29.7745C30.3737 14.8263 31.3333 11.4913 31.3333 8.81231C31.3333 4.56468 27.7241 0.979004 25.4583 0.979004C23.4256 0.979004 21.9705 2.12463 21.9098 2.17163C21.6767 2.3577 21.5416 2.6397 21.5416 2.93731V9.57799L15.8997 21.7961L15.6666 21.9155V21.5414C15.6666 21.0009 15.2279 20.5622 14.6874 20.5622H4.8958C2.19532 20.5623 0 22.7576 0 25.4581V41.1248C0 43.8254 2.19532 46.0206 4.8958 46.0206H10.7708C12.8877 46.0206 14.6972 44.6694 15.3787 42.7835C17.0081 43.6217 19.2014 44.0623 20.5625 44.0623H38.5381C40.6707 44.0623 42.537 42.6249 42.9756 40.6431C43.2008 39.6208 43.0696 38.5927 42.6231 37.6997C44.0684 36.9731 45.0417 35.4789 45.0417 33.7811C45.0417 33.0878 44.8831 32.4239 44.5834 31.8247C46.0287 31.0962 47 29.6039 47 27.9061ZM42.8699 30.3226C42.4919 30.3677 42.1727 30.6242 42.0513 30.9865C41.9319 31.3488 42.0318 31.7463 42.3098 32.0087C42.8073 32.4768 43.0834 33.1074 43.0834 33.7811C43.0834 35.0167 42.1493 36.0547 40.9136 36.1976C40.5357 36.2427 40.2164 36.4992 40.095 36.8615C39.9756 37.2238 40.0755 37.6213 40.3535 37.8837C40.9979 38.4908 41.2564 39.3427 41.0625 40.2201C40.8216 41.3128 39.7602 42.104 38.5382 42.104H20.5625C18.9723 42.104 16.3051 41.3579 15.3808 40.4316C15.1007 40.1535 14.6777 40.0713 14.3134 40.2201C13.9473 40.3709 13.7083 40.7293 13.7083 41.1248C13.7083 42.7444 12.3904 44.0623 10.7708 44.0623H4.8958C3.27623 44.0623 1.9583 42.7444 1.9583 41.1248V25.4581C1.9583 23.8385 3.27623 22.5206 4.8958 22.5206H13.7083V23.4998C13.7083 23.8386 13.8846 24.1539 14.1744 24.3341C14.4603 24.5064 14.8206 24.524 15.1261 24.3752L17.0844 23.396C17.2822 23.298 17.4409 23.1335 17.5349 22.9319L23.4099 10.2027C23.4686 10.0734 23.4999 9.93241 23.4999 9.79141V3.46798C23.9073 3.24281 24.6143 2.93731 25.4583 2.93731C26.5315 2.93731 29.375 5.60456 29.375 8.81231C29.375 12.259 27.4989 17.2272 27.4813 17.2763C27.3678 17.5759 27.4069 17.9147 27.589 18.181C27.7731 18.4454 28.0747 18.604 28.3958 18.604H41.8711C43.5044 18.604 44.8909 19.7731 45.0279 21.2654C45.1317 22.3816 44.5951 23.4431 43.6336 24.0365C43.334 24.2205 43.1558 24.5535 43.1695 24.9079C43.1832 25.2623 43.3869 25.5796 43.7002 25.7421C44.5286 26.1632 45.0416 26.9935 45.0416 27.9061C45.0417 29.1417 44.1076 30.1797 42.8699 30.3226Z" fill="white"></path>
    <path d="M14.6901 22.521C14.1496 22.521 13.7109 22.9597 13.7109 23.5002V41.1252C13.7109 41.6657 14.1496 42.1044 14.6901 42.1044C15.2306 42.1044 15.6693 41.6657 15.6693 41.1252V23.5002C15.6693 22.9597 15.2306 22.521 14.6901 22.521Z" fill="white"></path>
  </symbol>
  <symbol fill="none" xmlns="http://www.w3.org/2000/svg" viewBox="0 0 50 50" id="benefits-icon-07">
    <g clip-path="url(#clip0_5856_2365)">
      <path d="M49.1114 9.45599C48.4636 8.69017 47.5564 8.2224 46.5567 8.1389L11.3461 5.19888C10.3463 5.11538 9.37428 5.42622 8.60837 6.07397C7.84558 6.71918 7.37849 7.62182 7.29236 8.61664L6.58396 15.2627H3.75536C1.68466 15.2627 0 16.9474 0 19.0181V41.0592C0 43.1299 1.68466 44.8146 3.75536 44.8146H39.0885C41.1593 44.8146 42.844 43.1299 42.844 41.0592V37.4837L44.0978 37.5884C44.2035 37.5972 44.3087 37.6016 44.413 37.6016C46.3435 37.6016 47.9892 36.1163 48.1527 34.1585L49.9867 12.1939C50.0701 11.1942 49.7593 10.2219 49.1114 9.45599ZM3.75536 17.2158H39.0885C40.0823 17.2158 40.8909 18.0243 40.8909 19.0181V21.0265H1.95312V19.0181C1.95312 18.0243 2.76161 17.2158 3.75536 17.2158ZM1.95312 22.9796H40.8909V27.0312H1.95312V22.9796ZM39.0885 42.8614H3.75536C2.76161 42.8614 1.95312 42.0529 1.95312 41.0592V28.9843H40.8909V41.0592C40.8909 42.0529 40.0823 42.8614 39.0885 42.8614ZM48.0403 12.0313L46.2063 33.9959C46.1236 34.9863 45.2504 35.725 44.2603 35.642L42.844 35.5238V19.0181C42.844 16.9474 41.1593 15.2627 39.0885 15.2627H8.54821L9.23561 8.81351C9.23639 8.80609 9.23707 8.79876 9.23766 8.79125C9.32038 7.80092 10.193 7.06225 11.1837 7.14525L46.3943 10.0853C46.874 10.1253 47.3095 10.3498 47.6203 10.7174C47.9312 11.085 48.0804 11.5515 48.0403 12.0313Z" fill="white"></path>
      <path d="M36.8049 31.8877H27.4062C26.8669 31.8877 26.4297 32.3249 26.4297 32.8643V38.996C26.4297 39.5354 26.8669 39.9726 27.4062 39.9726H36.8049C37.3442 39.9726 37.7814 39.5354 37.7814 38.996V32.8643C37.7814 32.3249 37.3442 31.8877 36.8049 31.8877ZM35.8283 38.0194H28.3828V33.8408H35.8283V38.0194Z" fill="white"></path>
    </g>
    <defs>
      <clipPath id="clip0_5856_2365">
        <rect width="50" height="50" fill="white"></rect>
      </clipPath>
    </defs>
  </symbol>
  <symbol fill="none" xmlns="http://www.w3.org/2000/svg" viewBox="0 0 46 46" id="benefits-icon-08">
    <g clip-path="url(#clip0_5856_2357)">
      <path d="M31.6224 19.1667H14.3724C13.8434 19.1667 13.4141 18.7373 13.4141 18.2083V0.958333C13.4141 0.429333 13.8434 0 14.3724 0H31.6224C32.1514 0 32.5807 0.429333 32.5807 0.958333V18.2083C32.5807 18.7373 32.1514 19.1667 31.6224 19.1667ZM15.3307 17.25H30.6641V1.91667H15.3307V17.25Z" fill="white"></path>
      <path d="M25.8724 7.66667H20.1224C19.5934 7.66667 19.1641 7.23733 19.1641 6.70833V0.958333C19.1641 0.429333 19.5934 0 20.1224 0H25.8724C26.4014 0 26.8307 0.429333 26.8307 0.958333V6.70833C26.8307 7.23733 26.4014 7.66667 25.8724 7.66667ZM21.0807 5.75H24.9141V1.91667H21.0807V5.75Z" fill="white"></path>
      <path d="M23.0026 36.4167H4.79427C4.26527 36.4167 3.83594 35.9873 3.83594 35.4583V18.2083C3.83594 17.6793 4.26527 17.25 4.79427 17.25H23.0026C23.5316 17.25 23.9609 17.6793 23.9609 18.2083V35.4583C23.9609 35.9873 23.5316 36.4167 23.0026 36.4167ZM5.7526 34.5H22.0443V19.1667H5.7526V34.5Z" fill="white"></path>
      <path d="M16.2943 24.9167H10.5443C10.0153 24.9167 9.58594 24.4873 9.58594 23.9583V18.2083C9.58594 17.6793 10.0153 17.25 10.5443 17.25H16.2943C16.8233 17.25 17.2526 17.6793 17.2526 18.2083V23.9583C17.2526 24.4873 16.8233 24.9167 16.2943 24.9167ZM11.5026 23H15.3359V19.1667H11.5026V23Z" fill="white"></path>
      <path d="M41.2057 36.4167H22.9974C22.4684 36.4167 22.0391 35.9873 22.0391 35.4583V18.2083C22.0391 17.6793 22.4684 17.25 22.9974 17.25H41.2057C41.7347 17.25 42.1641 17.6793 42.1641 18.2083V35.4583C42.1641 35.9873 41.7347 36.4167 41.2057 36.4167ZM23.9557 34.5H40.2474V19.1667H23.9557V34.5Z" fill="white"></path>
      <path d="M35.4583 24.9167H29.7083C29.1793 24.9167 28.75 24.4873 28.75 23.9583V18.2083C28.75 17.6793 29.1793 17.25 29.7083 17.25H35.4583C35.9873 17.25 36.4167 17.6793 36.4167 18.2083V23.9583C36.4167 24.4873 35.9873 24.9167 35.4583 24.9167ZM30.6667 23H34.5V19.1667H30.6667V23Z" fill="white"></path>
      <path d="M45.0417 46H37.375C36.846 46 36.4167 45.5707 36.4167 45.0417V42.1667H28.75V45.0417C28.75 45.5707 28.3207 46 27.7917 46H18.2083C17.6793 46 17.25 45.5707 17.25 45.0417V42.1667H9.58333V45.0417C9.58333 45.5707 9.154 46 8.625 46H0.958333C0.429333 46 0 45.5707 0 45.0417V35.4583C0 34.9293 0.429333 34.5 0.958333 34.5H45.0417C45.5707 34.5 46 34.9293 46 35.4583V45.0417C46 45.5707 45.5707 46 45.0417 46ZM38.3333 44.0833H44.0833V36.4167H1.91667V44.0833H7.66667V41.2083C7.66667 40.6793 8.096 40.25 8.625 40.25H18.2083C18.7373 40.25 19.1667 40.6793 19.1667 41.2083V44.0833H26.8333V41.2083C26.8333 40.6793 27.2627 40.25 27.7917 40.25H37.375C37.904 40.25 38.3333 40.6793 38.3333 41.2083V44.0833Z" fill="white"></path>
    </g>
    <defs>
      <clipPath id="clip0_5856_2357">
        <rect width="46" height="46" fill="white"></rect>
      </clipPath>
    </defs>
  </symbol>
</svg>