<svg width="172" height="49" viewBox="0 0 172 49" fill="none" xmlns="http://www.w3.org/2000/svg">
<path fill-rule="evenodd" clip-rule="evenodd" d="M3.89419 14.528V34.4162L13.4245 40.0249V44.5142L0.00911989 36.6483H0V12.0633L17.2594 2.27541L17.2001 2.24121L21.051 0L25.7819 2.82717V2.97308V10.6087L30.506 13.3834H30.5585V13.4176L35.3145 16.2106V20.709L30.5585 17.916V35.2529L26.6711 37.7176V15.6315L21.8969 12.8317H21.8877V5.02278L21.0875 4.53943L3.89419 14.528ZM41.3792 11.9265H41.3884V36.6414L21.2334 48.3445V48.3537L15.554 45.0454V22.7063L12.7268 29.2384L10.0045 22.9388V35.0113L6.11033 32.8225V15.7432C7.60143 14.9156 9.24757 14.1586 10.4195 13.5727L12.9708 20.9233L15.5563 10.6087L19.4482 8.17826V42.8179L21.2311 43.853L37.4919 34.4162V14.1495L27.9616 8.54078V4.04923L41.3792 11.9265Z" fill="white"/>
<path d="M52.7553 21.0943V1.42265H58.9933L62.6891 14.8403L66.3348 1.42265H72.6002V21.0965H68.7402L68.7311 5.61096L64.6727 21.0965H60.6668L56.6244 5.60868L56.6062 21.0943H52.7553ZM95.3247 21.0943H90.8263L89.0502 16.6141H80.7853L79.0799 21.0943H74.6681L82.664 1.42037H87.0666L95.3247 21.0943ZM87.6982 13.2876L84.8368 6.01451L82.0529 13.2876H87.6982ZM96.4441 14.7172L100.502 14.3296C100.744 15.6314 101.234 16.5776 101.975 17.1818C102.725 17.7929 103.724 18.0961 104.983 18.0961C106.319 18.0961 107.326 17.8293 107.999 17.2867C108.672 16.7441 109.016 16.1148 109.016 15.392C109.016 14.9269 108.87 14.5302 108.585 14.2019C108.309 13.8736 107.81 13.5909 107.094 13.3583C106.611 13.1941 105.509 12.9092 103.786 12.4965C101.563 11.963 100.012 11.3155 99.114 10.5403C97.8463 9.45499 97.2193 8.13717 97.2193 6.56855C97.2193 5.56992 97.5203 4.63057 98.1062 3.7505C98.7013 2.87955 99.554 2.21608 100.673 1.76009C101.793 1.29497 103.129 1.07153 104.716 1.07153C107.292 1.07153 109.23 1.61417 110.532 2.70855C111.834 3.80294 112.513 5.25984 112.584 7.0861L108.414 7.2229C108.234 6.20603 107.853 5.47416 107.276 5.03413C106.699 4.58497 105.819 4.36153 104.666 4.36153C103.469 4.36153 102.529 4.60321 101.848 5.07745C101.417 5.38752 101.193 5.79336 101.193 6.30863C101.193 6.77375 101.401 7.17046 101.813 7.49878C102.331 7.92969 103.606 8.36973 105.623 8.82572C107.639 9.27488 109.13 9.75595 110.097 10.2393C111.07 10.7295 111.82 11.393 112.372 12.2388C112.915 13.0824 113.191 14.1335 113.191 15.3761C113.191 16.4956 112.862 17.5557 112.208 18.5384C111.554 19.5211 110.623 20.2529 109.424 20.7363C108.227 21.2105 106.736 21.4522 104.944 21.4522C102.342 21.4522 100.343 20.8845 98.9453 19.7286C97.5476 18.5794 96.72 16.9151 96.4441 14.7172ZM121.357 21.0943V4.74685H115.256V1.42265H131.594V4.74913H125.527V21.0965H121.357V21.0943ZM134.292 21.0943V1.42265H149.536V4.74913H138.462V9.11756H148.76V12.444H138.462V17.7701H149.939V21.0965H134.292V21.0943ZM153.482 21.0943V1.42265H162.237C164.435 1.42265 166.038 1.60277 167.037 1.95616C168.035 2.30956 168.838 2.93883 169.433 3.83486C170.037 4.74001 170.338 5.77284 170.338 6.9379C170.338 8.41989 169.882 9.63511 168.977 10.5927C168.072 11.5571 166.72 12.1613 164.919 12.4098C165.815 12.9092 166.556 13.4609 167.132 14.0651C167.718 14.6602 168.503 15.7272 169.494 17.2525L172.002 21.0965H167.03L164.048 16.7942C162.978 15.2689 162.246 14.3113 161.85 13.9169C161.453 13.5225 161.04 13.2443 160.6 13.0984C160.151 12.9525 159.453 12.8841 158.498 12.8841H157.655V21.0965H153.482V21.0943ZM157.652 9.74683H160.728C162.718 9.74683 163.959 9.66931 164.46 9.50515C164.962 9.34099 165.347 9.06512 165.623 8.6684C165.908 8.28081 166.045 7.78149 166.045 7.19554C166.045 6.53207 165.865 5.99856 165.493 5.5836C165.122 5.17776 164.597 4.92013 163.925 4.81753C163.589 4.77421 162.579 4.74913 160.892 4.74913H157.652V9.74683ZM59.3991 47.9979V30.6428H52.6094V28.3332H68.9226V30.6428H62.1328V47.9979H59.3991ZM67.3448 47.9979L75.2472 28.3332H78.2363L86.6197 47.9979H83.5258L81.1387 42.0358H72.4702L70.229 47.9979H67.3448ZM73.2728 39.9246H80.2882L78.1428 34.4709C77.4976 32.8156 77.0051 31.4453 76.6608 30.3692C76.3849 31.6528 76.0065 32.9114 75.5322 34.1517L73.2728 39.9246ZM87.9558 38.4243C87.9558 35.1663 88.8701 32.6172 90.7054 30.7727C92.5408 28.9191 94.9097 28.0071 97.8144 28.0071C99.7182 28.0071 101.433 28.4381 102.958 29.309C104.483 30.1708 105.646 31.3769 106.449 32.9273C107.249 34.4777 107.655 36.2356 107.655 38.2009C107.655 40.1913 107.233 41.9743 106.387 43.5429C105.544 45.1206 104.353 46.3085 102.81 47.1201C101.259 47.9295 99.5859 48.3263 97.803 48.3263C95.8559 48.3263 94.1322 47.8771 92.5978 46.9902C91.0725 46.0942 89.9189 44.8789 89.1254 43.3286C88.3434 41.785 87.9558 40.1571 87.9558 38.4243ZM90.7738 38.4768C90.7738 40.8388 91.4373 42.7084 92.7734 44.0604C94.1003 45.4216 95.7715 46.1033 97.7893 46.1033C99.8413 46.1033 101.522 45.4216 102.855 44.0445C104.173 42.6742 104.837 40.718 104.837 38.1941C104.837 36.6004 104.552 35.205 103.984 34.0149C103.423 32.8247 102.596 31.8945 101.501 31.2401C100.407 30.5858 99.1915 30.2575 97.8304 30.2575C95.8992 30.2575 94.2462 30.8867 92.8577 32.1521C91.4647 33.4175 90.7738 35.5196 90.7738 38.4768Z" fill="white"/>
<rect x="114.227" y="27.8157" width="57.6833" height="20.5198" fill="#89C249"/>
<path d="M123.09 43.0768C121.598 43.0768 120.354 42.6017 119.36 41.6514C118.365 40.6913 117.867 39.4589 117.867 37.9543C117.867 36.4497 118.365 35.2223 119.36 34.272C120.354 33.3119 121.598 32.8318 123.09 32.8318C124.822 32.8318 126.155 33.5742 127.09 35.059L125.598 35.8162C125.349 35.3906 124.996 35.0441 124.538 34.7769C124.09 34.5096 123.608 34.376 123.09 34.376C122.106 34.376 121.285 34.7125 120.628 35.3856C119.981 36.0587 119.658 36.915 119.658 37.9543C119.658 38.9937 119.981 39.8499 120.628 40.523C121.285 41.1961 122.106 41.5326 123.09 41.5326C123.618 41.5326 124.105 41.399 124.553 41.1317C125.001 40.8645 125.349 40.518 125.598 40.0924L127.09 40.8496C126.135 42.3344 124.802 43.0768 123.09 43.0768Z" fill="white"/>
<path d="M137.369 42.8986H135.384L134.653 40.9981H130.086L129.355 42.8986H127.37L131.28 32.9951H133.459L137.369 42.8986ZM134.16 39.4688L132.369 34.7472L130.579 39.4688H134.16Z" fill="white"/>
<path d="M146.157 42.8986H144.142L141.933 39.2015H140.202V42.8986H138.456V32.9951H142.829C143.804 32.9951 144.59 33.2822 145.187 33.8563C145.784 34.4304 146.082 35.1778 146.082 36.0983C146.082 36.9298 145.853 37.598 145.396 38.1028C144.938 38.5977 144.381 38.8996 143.724 39.0085L146.157 42.8986ZM142.59 37.6722C143.087 37.6722 143.495 37.5287 143.814 37.2416C144.132 36.9545 144.291 36.5735 144.291 36.0983C144.291 35.6232 144.132 35.2421 143.814 34.955C143.495 34.668 143.087 34.5244 142.59 34.5244H140.202V37.6722H142.59Z" fill="white"/>
<path d="M152.603 43.0917C151.13 43.0917 149.892 42.6165 148.887 41.6663C147.882 40.716 147.379 39.4787 147.379 37.9543C147.379 36.4299 147.882 35.1975 148.887 34.2572C149.892 33.3069 151.13 32.8318 152.603 32.8318C154.314 32.8318 155.652 33.5197 156.617 34.8956L155.184 35.6974C154.906 35.3114 154.538 34.9946 154.08 34.7472C153.632 34.4997 153.14 34.376 152.603 34.376C151.618 34.376 150.797 34.7125 150.14 35.3856C149.494 36.0587 149.17 36.915 149.17 37.9543C149.17 38.9937 149.494 39.8548 150.14 40.5378C150.797 41.2109 151.618 41.5475 152.603 41.5475C153.07 41.5475 153.513 41.4584 153.931 41.2802C154.359 41.1021 154.702 40.8942 154.961 40.6566V39.1124H151.991V37.5831H156.707V41.2951C155.622 42.4928 154.254 43.0917 152.603 43.0917Z" fill="white"/>
<path d="M166.822 41.6366C165.867 42.5967 164.648 43.0768 163.166 43.0768C161.683 43.0768 160.464 42.5967 159.509 41.6366C158.554 40.6665 158.077 39.4391 158.077 37.9543C158.077 36.4695 158.554 35.247 159.509 34.2869C160.464 33.3168 161.683 32.8318 163.166 32.8318C164.648 32.8318 165.867 33.3168 166.822 34.2869C167.777 35.247 168.255 36.4695 168.255 37.9543C168.255 39.4391 167.777 40.6665 166.822 41.6366ZM163.166 41.5326C164.151 41.5326 164.947 41.1961 165.553 40.523C166.16 39.84 166.464 38.9838 166.464 37.9543C166.464 36.915 166.16 36.0587 165.553 35.3856C164.947 34.7125 164.151 34.376 163.166 34.376C162.171 34.376 161.37 34.7125 160.763 35.3856C160.166 36.0587 159.867 36.915 159.867 37.9543C159.867 38.9937 160.166 39.8499 160.763 40.523C161.37 41.1961 162.171 41.5326 163.166 41.5326Z" fill="white"/>
</svg>
